<?xml version="1.0" encoding="UTF-8"?>
<svg id="Capa_2" data-name="Capa 2" xmlns="http://www.w3.org/2000/svg" viewBox="0 0 1029.15 591.39">
  <defs>
    <style>
      .cls-1 {
        fill: #e21019;
      }

      .cls-2 {
        fill: #0b4579;
      }
    </style>
  </defs>
  <g id="Capa_1-2" data-name="Capa 1">
    <g>
      <path class="cls-2" d="M22.95,509.53c-3.32,0-6.38-.54-9.17-1.63-2.79-1.08-5.21-2.62-7.26-4.61-2.05-1.99-3.65-4.32-4.8-6.98-1.15-2.67-1.72-5.6-1.72-8.8s.57-6.13,1.72-8.8c1.15-2.67,2.76-5,4.83-6.98,2.07-1.99,4.5-3.53,7.29-4.62,2.79-1.09,5.87-1.63,9.23-1.63s6.52.55,9.35,1.66c2.83,1.11,5.23,2.77,7.2,4.98l-3.81,3.82c-1.76-1.73-3.68-2.99-5.75-3.79-2.07-.8-4.32-1.2-6.74-1.2s-4.75.41-6.86,1.23c-2.11.82-3.94,1.97-5.48,3.45-1.54,1.48-2.73,3.23-3.57,5.26-.84,2.03-1.26,4.24-1.26,6.62s.42,4.52,1.26,6.55c.84,2.03,2.03,3.79,3.57,5.29,1.54,1.5,3.35,2.66,5.45,3.48,2.09.82,4.37,1.23,6.83,1.23,2.3,0,4.5-.36,6.62-1.08,2.11-.72,4.07-1.92,5.88-3.6l3.51,4.68c-2.13,1.8-4.63,3.17-7.48,4.09-2.85.92-5.8,1.39-8.83,1.39M33.35,503.25v-16h5.91v16.8l-5.91-.8Z"/>
      <path class="cls-2" d="M74.4,509.04v-43.08h16.8c3.77,0,6.99.59,9.66,1.78,2.67,1.19,4.72,2.91,6.15,5.17,1.44,2.26,2.15,4.94,2.15,8.06s-.72,5.8-2.15,8.03c-1.44,2.24-3.49,3.95-6.15,5.14-2.67,1.19-5.89,1.79-9.66,1.79h-13.42l2.77-2.83v15.94h-6.15ZM80.55,493.71l-2.77-3.02h13.23c3.94,0,6.92-.85,8.95-2.55,2.03-1.7,3.05-4.09,3.05-7.17s-1.02-5.46-3.05-7.14c-2.03-1.68-5.02-2.52-8.95-2.52h-13.23l2.77-3.08v25.48ZM103.2,509.04l-10.95-15.63h6.59l11.08,15.63h-6.71Z"/>
      <path class="cls-2" d="M160.37,509.53c-5.66,0-10.11-1.62-13.35-4.86-3.24-3.24-4.86-7.98-4.86-14.22v-24.49h6.15v24.25c0,4.8,1.06,8.31,3.17,10.52,2.11,2.21,5.1,3.32,8.95,3.32s6.9-1.11,9.02-3.32c2.11-2.22,3.17-5.72,3.17-10.52v-24.25h5.97v24.49c0,6.24-1.61,10.97-4.83,14.22-3.22,3.24-7.68,4.86-13.38,4.86"/>
      <path class="cls-2" d="M214.58,509.04v-43.08h16.8c3.77,0,6.99.59,9.66,1.78,2.67,1.19,4.72,2.91,6.15,5.17,1.44,2.26,2.16,4.94,2.16,8.06s-.72,5.8-2.16,8.03c-1.44,2.24-3.49,3.96-6.15,5.17-2.67,1.21-5.89,1.82-9.66,1.82h-13.42l2.77-2.89v15.94h-6.15ZM220.73,493.71l-2.77-3.08h13.23c3.94,0,6.92-.84,8.95-2.52,2.03-1.68,3.05-4.06,3.05-7.14s-1.02-5.46-3.05-7.14-5.02-2.52-8.95-2.52h-13.23l2.77-3.08v25.48Z"/>
      <path class="cls-2" d="M301.84,509.53c-3.28,0-6.33-.55-9.14-1.66-2.81-1.11-5.24-2.65-7.29-4.64-2.05-1.99-3.65-4.32-4.8-6.98-1.15-2.67-1.72-5.58-1.72-8.74s.57-6.07,1.72-8.74c1.15-2.67,2.75-5,4.8-6.98s4.47-3.54,7.26-4.65c2.79-1.11,5.85-1.66,9.17-1.66s6.31.54,9.08,1.63c2.77,1.09,5.19,2.63,7.26,4.62,2.07,1.99,3.67,4.32,4.8,6.98,1.13,2.67,1.69,5.6,1.69,8.8s-.56,6.13-1.69,8.8c-1.13,2.67-2.73,5-4.8,6.98-2.07,1.99-4.49,3.53-7.26,4.61-2.77,1.09-5.79,1.63-9.08,1.63M301.84,504.05c2.38,0,4.58-.41,6.62-1.23,2.03-.82,3.79-1.98,5.29-3.48,1.5-1.5,2.67-3.25,3.51-5.26.84-2.01,1.26-4.2,1.26-6.58s-.42-4.58-1.26-6.58c-.84-2.01-2.01-3.76-3.51-5.26-1.5-1.5-3.26-2.65-5.29-3.48-2.03-.82-4.24-1.23-6.62-1.23s-4.65.41-6.68,1.23c-2.03.82-3.81,1.98-5.32,3.48-1.52,1.5-2.7,3.25-3.54,5.26-.84,2.01-1.26,4.2-1.26,6.58s.42,4.58,1.26,6.58c.84,2.01,2.02,3.76,3.54,5.26,1.52,1.5,3.29,2.66,5.32,3.48,2.03.82,4.25,1.23,6.68,1.23"/>
      <path class="cls-2" d="M390.89,509.04l19.51-43.08h6.09l19.57,43.08h-6.46l-17.42-39.63h2.46l-17.41,39.63h-6.34ZM399.19,498.27l1.66-4.92h24.25l1.78,4.92h-27.69Z"/>
      <path class="cls-2" d="M482.76,509.53c-5.66,0-10.11-1.62-13.35-4.86-3.24-3.24-4.86-7.98-4.86-14.22v-24.49h6.15v24.25c0,4.8,1.06,8.31,3.17,10.52,2.11,2.21,5.1,3.32,8.95,3.32s6.9-1.11,9.02-3.32c2.11-2.22,3.17-5.72,3.17-10.52v-24.25h5.97v24.49c0,6.24-1.61,10.97-4.83,14.22-3.22,3.24-7.68,4.86-13.38,4.86"/>
      <polygon class="cls-2" points="544.73 509.04 544.73 471.31 529.96 471.31 529.96 465.96 565.59 465.96 565.59 471.31 550.82 471.31 550.82 509.04 544.73 509.04"/>
      <path class="cls-2" d="M614.52,509.53c-3.28,0-6.33-.55-9.14-1.66-2.81-1.11-5.24-2.65-7.29-4.64-2.05-1.99-3.65-4.32-4.8-6.98-1.15-2.67-1.72-5.58-1.72-8.74s.57-6.07,1.72-8.74c1.15-2.67,2.75-5,4.8-6.98s4.47-3.54,7.26-4.65c2.79-1.11,5.85-1.66,9.17-1.66s6.31.54,9.08,1.63c2.77,1.09,5.19,2.63,7.26,4.62,2.07,1.99,3.67,4.32,4.8,6.98,1.13,2.67,1.69,5.6,1.69,8.8s-.56,6.13-1.69,8.8c-1.13,2.67-2.73,5-4.8,6.98-2.07,1.99-4.49,3.53-7.26,4.61-2.77,1.09-5.79,1.63-9.08,1.63M614.52,504.05c2.38,0,4.58-.41,6.62-1.23,2.03-.82,3.79-1.98,5.29-3.48,1.5-1.5,2.67-3.25,3.51-5.26.84-2.01,1.26-4.2,1.26-6.58s-.42-4.58-1.26-6.58c-.84-2.01-2.01-3.76-3.51-5.26-1.5-1.5-3.26-2.65-5.29-3.48-2.03-.82-4.24-1.23-6.62-1.23s-4.65.41-6.68,1.23c-2.03.82-3.81,1.98-5.32,3.48-1.52,1.5-2.7,3.25-3.54,5.26-.84,2.01-1.26,4.2-1.26,6.58s.42,4.58,1.26,6.58c.84,2.01,2.02,3.76,3.54,5.26,1.52,1.5,3.29,2.66,5.32,3.48,2.03.82,4.25,1.23,6.68,1.23"/>
      <polygon class="cls-2" points="670.15 509.04 670.15 465.96 675.19 465.96 694.51 498.51 691.81 498.51 710.88 465.96 715.93 465.96 715.99 509.04 710.09 509.04 710.02 475.25 711.44 475.25 694.45 503.81 691.62 503.81 674.52 475.25 676.05 475.25 676.05 509.04 670.15 509.04"/>
      <path class="cls-2" d="M771.74,509.53c-3.28,0-6.33-.55-9.14-1.66-2.81-1.11-5.24-2.65-7.29-4.64-2.05-1.99-3.65-4.32-4.8-6.98-1.15-2.67-1.72-5.58-1.72-8.74s.57-6.07,1.72-8.74c1.15-2.67,2.75-5,4.8-6.98s4.47-3.54,7.26-4.65c2.79-1.11,5.85-1.66,9.17-1.66s6.31.54,9.08,1.63c2.77,1.09,5.19,2.63,7.26,4.62,2.07,1.99,3.67,4.32,4.8,6.98,1.13,2.67,1.69,5.6,1.69,8.8s-.56,6.13-1.69,8.8c-1.13,2.67-2.73,5-4.8,6.98-2.07,1.99-4.49,3.53-7.26,4.61-2.77,1.09-5.79,1.63-9.08,1.63M771.74,504.05c2.38,0,4.58-.41,6.62-1.23,2.03-.82,3.79-1.98,5.29-3.48,1.5-1.5,2.67-3.25,3.51-5.26.84-2.01,1.26-4.2,1.26-6.58s-.42-4.58-1.26-6.58c-.84-2.01-2.01-3.76-3.51-5.26-1.5-1.5-3.26-2.65-5.29-3.48-2.03-.82-4.24-1.23-6.62-1.23s-4.65.41-6.68,1.23c-2.03.82-3.81,1.98-5.32,3.48-1.52,1.5-2.7,3.25-3.54,5.26-.84,2.01-1.26,4.2-1.26,6.58s.42,4.58,1.26,6.58c.84,2.01,2.02,3.76,3.54,5.26,1.52,1.5,3.29,2.66,5.32,3.48,2.03.82,4.25,1.23,6.68,1.23"/>
      <polygon class="cls-2" points="835.31 509.04 835.31 471.31 820.54 471.31 820.54 465.96 856.18 465.96 856.18 471.31 841.41 471.31 841.41 509.04 835.31 509.04"/>
      <path class="cls-2" d="M886.27,509.04v-43.08h16.8c3.77,0,6.99.59,9.66,1.78,2.67,1.19,4.72,2.91,6.15,5.17,1.44,2.26,2.15,4.94,2.15,8.06s-.72,5.8-2.15,8.03c-1.44,2.24-3.49,3.95-6.15,5.14-2.67,1.19-5.89,1.79-9.66,1.79h-13.42l2.77-2.83v15.94h-6.15ZM892.42,493.71l-2.77-3.02h13.23c3.94,0,6.92-.85,8.95-2.55,2.03-1.7,3.05-4.09,3.05-7.17s-1.02-5.46-3.05-7.14c-2.03-1.68-5.02-2.52-8.95-2.52h-13.23l2.77-3.08v25.48ZM915.07,509.04l-10.95-15.63h6.59l11.08,15.63h-6.71Z"/>
      <rect class="cls-2" x="954.39" y="465.96" width="6.15" height="43.08"/>
      <polygon class="cls-2" points="993.03 509.04 993.03 504.85 1022.02 468.91 1022.7 471.31 993.47 471.31 993.47 465.96 1028.24 465.96 1028.24 470.14 999.37 506.08 998.64 503.68 1029.03 503.68 1029.03 509.04 993.03 509.04"/>
      <polygon class="cls-2" points="370.73 590.89 370.73 547.82 375.78 547.82 395.1 580.37 392.4 580.37 411.47 547.82 416.52 547.82 416.58 590.89 410.67 590.89 410.61 557.11 412.03 557.11 395.04 585.66 392.21 585.66 375.1 557.11 376.64 557.11 376.64 590.89 370.73 590.89"/>
      <path class="cls-2" d="M446.36,590.89l19.51-43.08h6.09l19.57,43.08h-6.46l-17.42-39.63h2.46l-17.41,39.63h-6.34ZM454.67,580.13l1.66-4.92h24.25l1.78,4.92h-27.69Z"/>
      <path class="cls-2" d="M540.15,591.39c-3.32,0-6.38-.54-9.17-1.63-2.79-1.08-5.21-2.62-7.26-4.61-2.05-1.99-3.65-4.32-4.8-6.98-1.15-2.67-1.72-5.6-1.72-8.8s.57-6.13,1.72-8.8c1.15-2.67,2.76-5,4.83-6.98,2.07-1.99,4.5-3.53,7.29-4.62,2.79-1.09,5.87-1.63,9.23-1.63s6.52.55,9.35,1.66c2.83,1.11,5.23,2.77,7.2,4.98l-3.81,3.82c-1.77-1.73-3.68-2.99-5.75-3.79-2.07-.8-4.32-1.2-6.74-1.2s-4.75.41-6.86,1.23c-2.11.82-3.94,1.97-5.48,3.45-1.54,1.48-2.73,3.23-3.57,5.26-.84,2.03-1.26,4.24-1.26,6.62s.42,4.52,1.26,6.55c.84,2.03,2.03,3.79,3.57,5.29,1.54,1.5,3.35,2.66,5.45,3.48,2.09.82,4.37,1.23,6.83,1.23,2.3,0,4.5-.36,6.62-1.08,2.11-.72,4.07-1.92,5.88-3.6l3.51,4.68c-2.13,1.8-4.63,3.17-7.48,4.09-2.85.92-5.8,1.39-8.83,1.39M550.55,585.11v-16h5.91v16.8l-5.91-.8Z"/>
      <polygon class="cls-2" points="591.59 590.89 591.59 547.82 596.64 547.82 625.13 583.2 622.48 583.2 622.48 547.82 628.64 547.82 628.64 590.89 623.59 590.89 595.1 555.51 597.75 555.51 597.75 590.89 591.59 590.89"/>
      <path class="cls-2" d="M658.42,590.89l19.51-43.08h6.09l19.57,43.08h-6.46l-17.42-39.63h2.46l-17.41,39.63h-6.34ZM666.73,580.13l1.66-4.92h24.25l1.78,4.92h-27.69Z"/>
      <path class="cls-2" d="M532.06,253.93c-1.3.52-2.59,1.02-3.87,1.48-12.27,4.36-24.86,6.54-37.77,6.54s-23.32-2.01-33.17-6.05c-9.85-4.03-18.32-9.76-25.42-17.19-7.1-7.42-12.59-16.38-16.46-26.87-3.88-10.49-5.81-22.03-5.81-34.62,0-13.23,1.94-25.01,5.81-35.34,3.87-10.33,9.36-19.2,16.46-26.63,7.1-7.42,15.74-13.07,25.9-16.95,10.17-3.87,21.55-5.81,34.14-5.81,15.17,0,28.97,3.15,41.4,9.44,12.42,6.3,23.97,15.58,34.62,27.84l73.11-64.4c-17.11-20.98-38.82-37.12-65.12-48.42-26.31-11.29-56.25-16.95-89.82-16.95-28.08,0-53.83,4.28-77.23,12.83-23.41,8.56-43.66,20.75-60.76,36.56-17.11,15.82-30.35,34.54-39.7,56.17-9.37,21.63-14.04,45.51-14.04,71.66s4.68,50.04,14.04,71.66c9.36,21.63,22.51,40.35,39.46,56.17,16.95,15.82,36.96,28.01,60.04,36.55,23.07,8.55,48.33,12.83,75.77,12.83,24.85,0,50.52-3.72,76.99-11.14,26.46-7.42,50.03-18.08,70.69-31.96v-143.32h-99.26v85.92Z"/>
      <polygon class="cls-1" points="1029.15 347.63 918.36 347.27 918.36 176.11 856.58 176.11 1029.15 3.55 1029.15 347.63"/>
      <polygon class="cls-1" points="684.71 347.63 795.5 347.27 795.5 176.11 857.29 176.11 684.71 3.55 684.71 347.63"/>
      <polygon class="cls-2" points="294.33 347.66 146.7 7.75 .75 347.66 118.28 347.66 147.42 279.47 172.99 347.66 294.33 347.66"/>
    </g>
  </g>
</svg>